<?xml version="1.0" encoding="UTF-8"?>
<svg version="1.1" xmlns="http://www.w3.org/2000/svg" width="259" height="194">
<path d="M0 0 C85.47 0 170.94 0 259 0 C259 64.02 259 128.04 259 194 C173.53 194 88.06 194 0 194 C0 129.98 0 65.96 0 0 Z " fill="#FDFDFD" transform="translate(0,0)"/>
<path d="M0 0 C14.59105282 3.36716603 27.53555465 6.99053624 35.9375 20 C37.7046529 24.9896082 37.636703 29.06555577 35.625 33.9375 C29.5278701 44.84482235 17.17059453 49.3363923 5.79101562 52.64160156 C-8.05079359 56.39017736 -22.83219362 57.80618387 -37 55 C-37 52.69 -37 50.38 -37 48 C-36.34741211 48.02094727 -35.69482422 48.04189453 -35.02246094 48.06347656 C-15.5743282 48.60162104 8.25298062 48.96327804 24.1875 35.8125 C27.46294698 32.53705302 28.17970917 31.15665544 28.375 26.6875 C28.31840886 23.15055387 28.15927653 22.21900523 26 19.25 C19.716243 14.53718225 14.51864562 11.81949211 7 9 C7 18.57 7 28.14 7 38 C3.535 38.495 3.535 38.495 0 39 C0 26.13 0 13.26 0 0 Z " fill="#0C0C0A" transform="translate(152,38)"/>
<path d="M0 0 C1.1329248 0.47775879 2.26584961 0.95551758 3.43310547 1.44775391 C4.95270508 2.08258278 6.47240446 2.71717289 7.9921875 3.3515625 C9.10630005 3.82251343 9.10630005 3.82251343 10.24291992 4.30297852 C28.30739929 11.81756618 46.74041498 11.78694337 66 12 C66 14.31 66 16.62 66 19 C45.88094131 19.63941855 27.01214315 19.60485726 8 12 C7.67 20.58 7.34 29.16 7 38 C8.65 38.66 10.3 39.32 12 40 C14.97 41.98 17.94 43.96 21 46 C21.33 38.74 21.66 31.48 22 24 C24.31 24.33 26.62 24.66 29 25 C29 36.22 29 47.44 29 59 C27.35 58.34 25.7 57.68 24 57 C23.08565186 56.65509521 22.17130371 56.31019043 21.22924805 55.95483398 C13.34522963 52.74349913 4.2774976 48.78293423 0 41 C-3.7880507 28.20554945 -1.41625222 13.05130892 0 0 Z " fill="#090907" transform="translate(78,96)"/>
<path d="M0 0 C0 20.13 0 40.26 0 61 C-2.31 60.34 -4.62 59.68 -7 59 C-7 42.5 -7 26 -7 9 C-18.39962629 13.20355262 -18.39962629 13.20355262 -27.4375 20.8125 C-28.33063947 24.28582017 -28.64609102 27.48390467 -28 31 C-25.36607953 35.19781076 -22.99065391 37.08337673 -18.6875 39.4375 C-16.60546875 40.6328125 -16.60546875 40.6328125 -15 42 C-14.5 45.8125 -14.5 45.8125 -15 49 C-22.48027084 46.82652897 -30.23911126 42.2883349 -34.6875 35.6875 C-36.89029231 29.49870255 -37.27437099 23.70166649 -34.4375 17.6875 C-26.01017394 8.39583281 -13.02305863 0 0 0 Z " fill="#090907" transform="translate(107,38)"/>
<path d="M0 0 C4.18952147 34.00793323 4.18952147 34.00793323 -1.18048096 42.97015381 C-7.57360824 50.70288656 -17.75202905 55.57603097 -27 59 C-27.66 59 -28.32 59 -29 59 C-29 40.52 -29 22.04 -29 3 C-26.69 2.34 -24.38 1.68 -22 1 C-21.67 15.85 -21.34 30.7 -21 46 C-17.04 43.36 -13.08 40.72 -9 38 C-8.34 38 -7.68 38 -7 38 C-7.495 25.13 -7.495 25.13 -8 12 C-9.98 12.33 -11.96 12.66 -14 13 C-14 10.69 -14 8.38 -14 6 C-11.85521084 4.99770632 -9.70925278 3.99807145 -7.5625 3 C-6.36753906 2.443125 -5.17257813 1.88625 -3.94140625 1.3125 C-1 0 -1 0 0 0 Z " fill="#070806" transform="translate(181,96)"/>
</svg>
