<?xml version="1.0" encoding="UTF-8" standalone="no"?>
<svg height="199.45778" viewBox="0 0 200 199.45777" width="200" xmlns="http://www.w3.org/2000/svg">
  <path d="m99.72889 0c-54.99786 0-99.72889 44.73103-99.72889 99.72889 0 54.99786 44.73103 99.72889 99.72889 99.72889 54.99786 0 99.72889-44.73103 99.72889-99.72889 0-54.99786-44.73103-99.72889-99.72889-99.72889zm0 183.0138c-45.92385 0-83.28491-37.36106-83.28491-83.28491 0-45.92385 37.36106-83.24231 83.28491-83.24231 45.92385 0 83.28491 37.36106 83.28491 83.28491 0 45.92385-37.36106 83.24231-83.28491 83.24231zm8.34979-129.54957h27.22203v15.20855l-42.17497 57.25571h42.17497v20.15026h-27.22203v16.65698h-16.69958v-16.65698h-27.22202v-15.20855l42.17496-57.25571h-42.17496v-20.15026h27.22202v-16.74218h16.69958z" fill="#a82224" stroke-width=".42600977"/>
</svg>
