<svg height="256" viewBox="0 0 256 256" width="256" xmlns="http://www.w3.org/2000/svg"><g fill="none" stroke-miterlimit="10" stroke-width="0" transform="matrix(2.81 0 0 2.81 1.407 1.407)"><circle cx="45" cy="45" fill="#ae0000" r="45"/><path d="m53.019 55.671c3.107-2.709 8.66-5.131 14.044-7.479 3.689-1.609 7.505-3.274 10.621-5.07 2.765-1.592 4.229-4.057 4.033-6.775v-1.854c0-.057-.007-.166-.012-.223-.105-1.23-.251-2.917-1.031-4.198-2.202-3.616-5.451-7.74-9.657-12.261-.03-.037-.063-.073-.098-.108-2.167-2.239-3.015-4.355-3.996-6.806-.465-1.162-.943-2.357-1.584-3.595.05-.257.044-1.489-.006-2.443-6.109-3.1-13.014-4.859-20.333-4.859-.986 0-1.961.043-2.931.105-2.84 3.529-4.221 10.534-4.714 14.776-.327 2.813-.636 5.471-1.469 7.296-.227.496-.241 1.063-.039 1.57s.602.909 1.107 1.114l.118.048c-1.59 4.099-2.534 8.666-3.534 15-6.291 2.715-8.15 6.969-10.112 11.458-1.201 2.747-2.436 5.574-4.781 8.6-1.363-.451-2.915-.132-4.012.95l-3.353 3.312c-.092.088-.167.174-.226.252-.068.064-.133.134-.192.209-1.608 2.013-1.422 4.881.433 6.672l7.77 7.502c1.251 1.209 2.898 1.874 4.638 1.874h3.942c2.693 0 4.883-2.19 4.883-4.883 0-3.052-2.482-5.534-5.534-5.534h-.517c-.018-.051-.039-.13-.048-.242l-.015-4.017c0-.414-.092-.814-.265-1.177 3.642-4.003 7.065-7.003 10.2-9.621.096.557.289 1.107.585 1.629l8.13 14.215c.551.963 1.445 1.652 2.516 1.941 1.069.287 2.189.143 3.149-.411l.479-.276c.363-.209.636-.515.804-.866 1.004-1.815 1.342-3.928.952-5.958l-1.104-5.774 1.069-3.679c.042-.138.071-.275.09-.414zm-6.775-8.111c-.267-.093-.545-.157-.831-.191 1.266-1.282 2.457-2.642 3.578-4.163 2.33-2.435 4.783-6.312 7.299-11.533.545.427 1.039.809 1.442 1.113.819.619 1.969.515 2.665-.229.756.506 1.497.977 2.227 1.414-3.371 1.132-5.033 2.993-7.036 5.499-1.793 2.243-4.001 5.006-9.344 8.09z" fill="#5c0000"/><path d="m11.805 75.378c8.228 8.985 20.052 14.622 33.195 14.622s24.967-5.637 33.195-14.622z" fill="#2e0000"/><path d="m63.375 3.925c-5.612-2.515-11.827-3.925-18.375-3.925-.294 0-.584.017-.877.022-3.348 3.711-4.026 8.74-1.333 15.432-4.506 6.337-5.886 12.735-7.451 22.886-10.907 4.069-8.011 12.221-16.765 21.821-3.662 1.32-4.931 2.391-6.539 5.189l11.224 10.027 3.845-2.133c-2.061-6.614-6.668-.752-3.786-11.185 9.987-11.498 18.298-15.149 24.14-23.146 6.082-6.256 12.327-22.6 15.917-34.988z" fill="#ffcc9a"/><path d="m24.953 69.965c-.163 2.469.87 2.629 2.117 3.298l.033-.018c-.587-1.886-1.381-2.756-2.15-3.28z" fill="#f0b479"/><path d="m17.912 63.284c9.208-10.098 9.163-19.674 20.635-23.954-.035-11.048 2.051-16.638 7.838-23.073-2.817-7.001-2.125-12.27 1.347-16.167-.904-.055-1.814-.09-2.732-.09-.294 0-.584.017-.877.022-3.348 3.711-4.026 8.74-1.333 15.432-4.506 6.337-5.886 12.735-7.451 22.886-10.907 4.069-8.011 12.221-16.765 21.821-3.662 1.32-4.931 2.391-6.539 5.189l2.634 2.353c1.436-2.194-.119-3.207 3.243-4.419z" fill="#f0b479"/><path d="m50.143 65.762-1.43-5.625 2.059-8.099c5.059-5.299 17.884-9.023 25.913-13.65 1.875-1.08 3.217-2.808 3.031-4.964v-1.932c-.09-1.044-.206-2.486-.751-3.381-4.342-7.128-12.379-15.47-20.442-22.681l-7.202 13.936 2.059 2.196c5.078 4.424 10.213 8.237 15.512 10.295-13.85 1.086-7.992 7.395-23.611 15.512l-4.998 2.916 7.493 15.475h2.367z" fill="#ffcc9a"/><path d="m44.168 49.461c18.39-9.557 12.496-15.292 28.804-16.57-6.239-2.424-11.289-7.607-17.268-12.816l-3.685-2.057-.698 1.351 2.059 2.196c5.078 4.424 10.213 8.237 15.512 10.295-13.85 1.086-7.992 7.395-23.611 15.512l-4.998 2.916 1.362 2.812z" fill="#f0b479"/><path d="m50.14 65.76-.39-1.54-.39 1.54z" fill="#f0b479"/><path d="m51.322 19.368.625 3.183c1.732 1.509 5.241 4.317 6.991 5.638l10.544-12.096c-4.072-4.206-4.074-8.208-6.864-12.511-.571-.243-1.151-.469-1.733-.689z" fill="#000000"/><path d="m53.079 18.871-.382-1.874-1.376 2.371.625 3.183c1.732 1.509 5.241 4.317 6.991 5.638l2.47-2.833c-2.159-1.58-6.271-4.756-8.328-6.485z" fill="#222222"/><path d="m24.414 63.062v3.885c0 1.496.88 2.373 1.965 2.373h.615c1.952 0 3.534 1.582 3.534 3.534 0 1.592-1.291 1.883-2.883 1.883h-3.943c-1.212 0-1.376.53-2.248-.312l-7.77-7.502c-1.199-1.158-2.21-3.076-1.024-4.247l3.377-3.335c.753-.744 1.962-.754 2.727-.021-.064 2.513 2.165 3.598 4.743 3.026.465-.104.907.24.907.716z" fill="#fff"/><path d="m12.424 62.938 9.523 9.171c.496.478 1.158.745 1.847.745h6.733c0 1.592-1.291 2.883-2.883 2.883h-3.942c-1.212 0-2.376-.47-3.248-1.312l-7.77-7.502c-1.114-1.075-1.203-2.806-.26-3.985z" fill="#333333"/><path d="m18.764 59.319c-.017.684.135 1.263.419 1.731l.001-.001c-1.162.561-2.515.506-4.213-.656l1.066-1.052c.753-.744 1.962-.754 2.727-.022" fill="#333333"/><path d="m16.025 66.406-3.601-3.468 1.807-1.815c1.726 1.663 2.391 3.418 1.794 5.283z" fill="#333333"/><path d="m24.431 67.609-.018-3.731-.87.174c-.792.159-1.266.975-1.011 1.742l.311.933c.221.661.911 1.044 1.588.882z" fill="#333333"/><path d="m17.086 67.235c.635-.258 1.298-.471 1.972-.587.674-.119 1.35-.137 2.011-.098-1.321.211-2.51.741-3.54 1.498-.208.153-.501.108-.653-.1-.153-.208-.108-.501.1-.653.031-.023.064-.041.099-.056z" fill="#333333"/><path d="m18.482 68.58c.635-.258 1.297-.47 1.971-.586.674-.119 1.349-.137 2.01-.097-1.32.211-2.509.741-3.538 1.497-.208.153-.501.108-.653-.1-.153-.208-.108-.501.1-.653.031-.023.064-.041.099-.056z" fill="#333333"/><path d="m19.877 69.913c.632-.255 1.291-.464 1.961-.577.67-.116 1.341-.133 1.998-.094-1.312.211-2.494.736-3.517 1.486-.208.153-.501.108-.653-.101-.153-.208-.108-.501.101-.653.031-.023.065-.042.099-.056z" fill="#333333"/><path d="m50.232 67.583c.8-1.417 1.076-3.071.77-4.67l-1.202-6.281 1.213-4.114c.136-.461-.196-.916-.675-.949-2.629-.185-4.455-1.854-3.684-4.243-.527-.919-1.689-1.251-2.622-.751l-4.183 2.244c-.115.062-.213.14-.317.214z" fill="#fff"/><g fill="#333333"><path d="m46.653 47.325c-.21.651-.227 1.249-.088 1.778h.001c-1.273.209-2.555-.226-3.855-1.821l1.32-.708c.933-.5 2.095-.167 2.622.751"/><path d="m42.022 53.348-2.473-4.344 2.246-1.229c1.185 2.083 1.326 3.954.227 5.573z"/><path d="m49.745 56.88 1.038-3.584-.883-.079c-.804-.072-1.49.577-1.462 1.385l.034.983c.024.696.577 1.259 1.273 1.295z"/><path d="m42.805 54.443c.683-.068 1.378-.084 2.058-.005.68.077 1.333.25 1.957.475-1.326-.171-2.617.001-3.819.436-.243.088-.511-.038-.599-.281s.038-.511.281-.599c.036-.013.073-.022.11-.025z"/><path d="m43.764 56.128c.682-.068 1.377-.084 2.057-.005.68.077 1.333.25 1.956.475-1.326-.171-2.616.001-3.817.435-.243.088-.511-.038-.599-.281s.038-.511.281-.599c.036-.013.074-.022.11-.025z"/><path d="m44.725 57.802c.678-.066 1.369-.08 2.044.001.676.078 1.324.251 1.943.475-1.318-.169-2.6 0-3.793.43-.243.088-.511-.038-.598-.281s.039-.511.281-.598c.037-.013.074-.022.111-.025z"/><path d="m50.211 67.629-10.663-18.625v-.001c-1.238.865-1.642 2.55-.878 3.896l8.131 14.214c.589 1.03 1.903 1.385 2.93.792z"/><path d="m37.705 20.007 17.181 6.965c3.365-7.155 6.385-15.781 8.491-23.047-5.614-2.515-11.829-3.925-18.377-3.925-.294 0-.584.017-.877.022-5.782 3.349-3.84 14.336-6.418 19.985z"/></g><path d="m47.199.059c-.729-.035-1.461-.059-2.199-.059-.294 0-.584.017-.877.022-5.781 3.349-3.839 14.336-6.418 19.985l4.311 1.748c2.316-6.148 1.224-16.367 5.183-21.696z" fill="#000000"/></g></svg>