<svg id="Layer_1" enable-background="new 0 0 256 256" height="512" viewBox="0 0 256 256" width="512" xmlns="http://www.w3.org/2000/svg"><g><g><g><g><path d="m228.836 128c0 10.114-15.418 17.666-18.38 26.792-3.071 9.457 4.864 24.61-.873 32.482-5.788 7.959-22.684 5.065-30.636 10.85-7.872 5.73-10.317 22.724-19.775 25.795-9.126 2.962-21.051-9.252-31.171-9.252s-22.039 12.214-31.171 9.252c-9.457-3.071-11.903-20.065-19.775-25.795-7.959-5.785-24.851-2.9-30.636-10.85-5.73-7.872 2.197-23.025-.873-32.482-2.962-9.126-18.38-16.678-18.38-26.792s15.418-17.666 18.38-26.792c3.071-9.457-4.864-24.61.873-32.482 5.788-7.959 22.684-5.065 30.636-10.85 7.872-5.73 10.317-22.724 19.775-25.795 9.126-2.962 21.051 9.252 31.171 9.252s22.039-12.214 31.171-9.252c9.458 3.071 11.903 20.065 19.775 25.795 7.959 5.785 24.851 2.9 30.636 10.85 5.73 7.872-2.197 23.025.873 32.482 2.962 9.126 18.38 16.678 18.38 26.792z" fill="#e63950"/></g></g></g><g><g><g><path d="m46.99 112.52c-.46 0-.9-.16-1.261-.44-.41-.34-.67-.81-.729-1.35-.061-.53.1-1.05.43-1.46 1.771-2.21 3-4.27 3.73-6.29.069-.18.13-.36.189-.54.63-1.93.931-4.09.931-6.59 0-3.33-.561-6.96-1.061-10.17l-.04-.28c-.439-2.9-.899-5.9-.91-8.63.03-2.27.28-4.11 1.38-5.69 1.5-1.95 3.761-2.74 6.141-3.44 2.39-.66 5.029-1.09 7.58-1.5l.17-.03c6.54-1.04 11.859-2.06 15.87-5 3.96-2.86 6.56-7.57 9.529-13.43l.101-.19c1.18-2.31 2.41-4.7 3.79-6.78 1.35-1.99 2.87-4 5.229-4.82.55-.18 1.15-.27 1.8-.27h.021c3.35.07 7.07 1.92 10.67 3.71.42.21.85.42 1.28.64 6 3.04 10.989 5.36 16.109 5.36h.12c5.12 0 10.11-2.32 16.101-5.36.43-.21.85-.42 1.279-.63 3.601-1.8 7.33-3.65 10.67-3.72h.03c.65 0 1.25.09 1.8.27 2.36.82 3.88 2.83 5.23 4.81 1.399 2.12 2.63 4.53 3.83 6.86l.06.12c1.41 2.76 2.87 5.63 4.57 8.1.62.91.39 2.16-.521 2.78-.88.61-2.18.36-2.779-.52-1.83-2.68-3.32-5.57-4.75-8.37l-.09-.17c-1.29-2.54-2.46-4.78-3.65-6.58-1.23-1.91-2.53-3.09-3.14-3.23-.15-.05-.341-.07-.58-.07-.04 0-.08 0-.12 0-1.641 0-4.92 1.28-10.03 3.92l-.479.24c-5.431 2.72-11.051 5.53-17.49 5.55-6.45-.02-12.061-2.83-17.5-5.56l-.47-.23c-5.23-2.7-8.5-3.99-10.141-3.92-.25 0-.439.02-.59.07-.61.14-1.91 1.31-3.14 3.23-1.271 1.9-2.54 4.39-3.65 6.58l-.27.51c-2.69 5.24-5.49 10.67-10.48 14.33-5.07 3.67-11.14 4.66-17.01 5.63l-.57.09c-2.41.39-5.149.83-7.32 1.44-2.1.54-3.67 1.41-3.97 1.93-.32.37-.64 1.66-.62 3.34 0 2.27.431 5.22.91 8.3l.021.15c.529 3.45 1.08 7.02 1.08 10.63 0 2.92-.37 5.48-1.131 7.83-.069.23-.14.42-.199.6-.011.02-.021.05-.03.07-.89 2.45-2.32 4.87-4.37 7.42-.38.48-.95.75-1.56.75zm128.42-47.79c-.42 0-.83-.13-1.17-.38 0-.01-.011-.01-.011-.01-.43-.31-.71-.78-.79-1.3-.08-.53.051-1.06.36-1.49.63-.86 1.93-1.06 2.8-.44.891.65 1.08 1.91.431 2.8-.37.51-.98.82-1.62.82z" fill="#e8566f"/></g></g></g><g><g><g><path d="m210.456 154.792c2.962-9.126 18.38-16.678 18.38-26.792s-15.418-17.666-18.38-26.792c-3.071-9.458 4.857-24.61-.873-32.482-1.805-2.481-4.692-3.906-8.052-4.87 1.188 8.242-3.568 19.674-1.075 27.352 2.962 9.126 18.38 16.678 18.38 26.792s-15.418 17.666-18.38 26.792c-3.071 9.458 4.864 24.61-.873 32.482-5.788 7.959-22.684 5.065-30.636 10.85-7.873 5.73-10.318 22.724-19.775 25.795-9.126 2.962-21.051-9.252-31.171-9.252-9.892 0-21.501 11.668-30.548 9.429 2.482 4.525 5.267 8.488 9.377 9.822 9.132 2.962 21.051-9.252 31.171-9.252 10.121 0 22.045 12.214 31.171 9.252 9.458-3.071 11.902-20.065 19.775-25.795 7.952-5.785 24.849-2.892 30.636-10.85 5.736-7.871-2.198-23.024.873-32.481z" fill="#d10028"/></g></g></g><g><g><g><path d="m210.456 154.792c2.962-9.126 18.38-16.678 18.38-26.792s-15.418-17.666-18.38-26.792c-3.071-9.458 4.857-24.61-.873-32.482-1.028-1.413-2.407-2.483-4.024-3.321 3.74 8.201-2.967 21.98-.103 30.803 2.962 9.126 18.38 16.678 18.38 26.792s-15.418 17.666-18.38 26.792c-3.071 9.458 4.864 24.61-.873 32.482-5.788 7.959-22.684 5.065-30.636 10.85-7.873 5.73-10.318 22.724-19.775 25.795-9.126 2.962-21.051-9.252-31.171-9.252-10.121 0-22.039 12.214-31.171 9.252-.703-.228-1.367-.534-1.998-.906 1.921 2.777 4.139 4.978 6.998 5.906 9.132 2.962 21.051-9.252 31.171-9.252 10.121 0 22.045 12.214 31.171 9.252 9.458-3.071 11.902-20.065 19.775-25.795 7.952-5.785 24.849-2.892 30.636-10.85 5.736-7.872-2.198-23.025.873-32.482z" fill="#b7022d"/></g></g></g><g><g><g><g><path d="m123.249 166.447h33.482v-69.28h-44.526c-3.03 4.029-6.036 6.846-8.492 6.792v57.959h4.58c5.55-.35 9.405 4.879 14.956 4.529z" fill="#ffd2c0"/></g></g><g><g><path d="m136.47 97.167c-2.809 0-4.746 2.775-3.815 5.426.777 2.213 1.202 4.591 1.202 7.07 0 8.194-4.589 15.314-11.336 18.936-1.638.879-1.638 3.297 0 4.176 6.747 3.621 11.336 10.742 11.336 18.936 0 1.182-.096 2.341-.281 3.47-.97 5.93 3.776 11.266 9.786 11.266h13.369v-69.28z" fill="#f2ad97"/></g></g></g><g><g><path d="m174.438 131.807h-22.075c-4.783 0-8.66-3.877-8.66-8.66 0-4.783 3.877-8.66 8.66-8.66h22.075c4.783 0 8.66 3.877 8.66 8.66 0 4.783-3.878 8.66-8.66 8.66z" fill="#ffd2c0"/></g></g><g><g><path d="m183.098 123.147c0-.74-.093-1.458-.267-2.143-.954 3.746-4.349 6.517-8.392 6.517h-22.075c-4.043 0-7.438-2.771-8.392-6.517-.175.685-.268 1.403-.268 2.143 0 4.783 3.877 8.66 8.66 8.66h22.075c4.781 0 8.659-3.877 8.659-8.66z" fill="#fcc4ae"/></g></g><g><g><path d="m170.136 149.127h-22.075c-4.783 0-8.66-3.877-8.66-8.66 0-4.783 3.877-8.66 8.66-8.66h22.075c4.783 0 8.66 3.877 8.66 8.66 0 4.783-3.877 8.66-8.66 8.66z" fill="#ffd2c0"/></g></g><g><g><path d="m178.796 140.467c0-.74-.093-1.458-.268-2.143-.954 3.746-4.35 6.517-8.392 6.517h-22.075c-4.043 0-7.439-2.771-8.392-6.517-.175.685-.268 1.403-.268 2.143 0 4.783 3.877 8.66 8.66 8.66h22.075c4.783 0 8.66-3.877 8.66-8.66z" fill="#fcc4ae"/></g></g><g><g><path d="m165.834 166.447h-22.074c-4.783 0-8.66-3.877-8.66-8.66 0-4.783 3.877-8.66 8.66-8.66h22.074c4.783 0 8.66 3.877 8.66 8.66.001 4.783-3.877 8.66-8.66 8.66z" fill="#ffd2c0"/></g></g><g><g><path d="m174.495 157.787c0-.74-.093-1.458-.268-2.143-.954 3.746-4.35 6.517-8.393 6.517h-22.074c-4.043 0-7.439-2.771-8.393-6.517-.174.685-.267 1.403-.267 2.143 0 4.783 3.877 8.66 8.66 8.66h22.074c4.783 0 8.661-3.877 8.661-8.66z" fill="#fcc4ae"/></g></g><g><g><path d="m178.739 114.487h-22.074c-4.783 0-8.66-3.877-8.66-8.66 0-4.783 3.877-8.66 8.66-8.66h22.074c4.783 0 8.66 3.877 8.66 8.66.001 4.783-3.877 8.66-8.66 8.66z" fill="#ffd2c0"/></g></g><g><g><path d="m187.4 105.827c0-.74-.093-1.458-.267-2.143-.954 3.746-4.35 6.517-8.393 6.517h-22.074c-4.043 0-7.439-2.771-8.393-6.517-.174.685-.267 1.403-.267 2.143 0 4.783 3.877 8.66 8.66 8.66h22.074c4.782 0 8.66-3.877 8.66-8.66z" fill="#fcc4ae"/></g></g><g><g><path d="m162.33 124.961c1.772-.59 2.709-2.534 2.126-4.308l-9.342-28.429c-1.156-3.519-4.441-5.897-8.145-5.897h-18.992c-9.566 0-17.32 7.754-17.32 17.32h28.818l3.868 11.771c2.593 7.887 11.103 12.17 18.987 9.543z" fill="#ffd2c0"/></g></g><g><g><path d="m162.33 124.961c1.591-.53 2.509-2.152 2.257-3.763-7.265 1.346-14.586-2.853-16.956-10.067l-3.093-9.412c-.462-1.407-1.776-2.359-3.258-2.359h-4.858c-1.894 0-3.429 1.535-3.429 3.429v.857h6.483l3.868 11.771c2.592 7.888 11.102 12.171 18.986 9.544z" fill="#fcc4ae"/></g></g><g><g><path d="m97.957 169.673h-23.6c-3.179 0-5.756-2.577-5.756-5.756v-62.071c0-3.179 2.577-5.756 5.756-5.756h23.601c3.179 0 5.756 2.577 5.756 5.756v62.071c-.001 3.179-2.578 5.756-5.757 5.756z" fill="#58595b"/></g></g><g><g><path d="m98.67 96.133c.029.234.044.471.044.712v62.071c0 3.179-2.577 5.756-5.756 5.756h-23.601c-.241 0-.479-.015-.712-.044.351 2.843 2.775 5.044 5.712 5.044h23.601c3.179 0 5.756-2.577 5.756-5.756v-62.071c-.001-2.937-2.202-5.361-5.044-5.712z" fill="#414042"/></g></g><g><g><circle cx="86.157" cy="114.487" fill="#939598" r="6.764"/></g></g></g></g></svg>