<svg height="512" viewBox="0 0 64 64" width="512" xmlns="http://www.w3.org/2000/svg"><g id="Layer_8" data-name="Layer 8"><path d="m61.3 59.24-16.3-28.24a1.5 1.5 0 0 0 -2.6 0l-6.52 11.35a1.44 1.44 0 0 0 -.19.46 1.52 1.52 0 0 0 .18 1.12l9.71 16.81a1.51 1.51 0 0 0 1.3.75h13.12a1.51 1.51 0 0 0 1.3-.75 1.49 1.49 0 0 0 0-1.5z" fill="#366030"/><path d="m52 2.5a7.36 7.36 0 1 0 7.36 7.36 7.37 7.37 0 0 0 -7.36-7.36z" fill="#fcb860"/><path d="m48.18 59.25-21.44-37.14a1.5 1.5 0 0 0 -2.6 0l-21.44 37.14a1.49 1.49 0 0 0 0 1.5 1.51 1.51 0 0 0 1.3.75h42.88a1.51 1.51 0 0 0 1.3-.75 1.49 1.49 0 0 0 0-1.5z" fill="#69914b"/></g></svg>